<svg xmlns="http://www.w3.org/2000/svg" xmlns:v="https://svgstorm.com"
viewBox = "0 0 803 234"
width="803"
height="234">
<g fill="None" fill-opacity="0.0" stroke="#000000" stroke-opacity="0.00" stroke-width="0.3"><path d="
M 0.00 37.00 
C 10.28 16.10 33.29 4.39 55.00 0.00
L 0.00 0.00
L 0.00 37.00 Z"/>
</g>
<g fill="None" fill-opacity="0.0" stroke="#24326C" stroke-opacity="0.96" stroke-width="0.3"><path d="
M 0.00 37.00 
L 0.00 112.00
C 10.68 130.86 30.75 144.23 52.00 147.00
C 52.00 124.00 52.00 101.00 52.00 78.00
C 48.66 78.98 41.98 75.82 41.00 80.00
C 39.85 81.03 39.51 82.27 38.00 83.00
C 35.00 84.44 30.01 84.53 27.00 83.00
C 24.93 81.94 24.72 80.92 24.00 79.00
C 21.70 72.86 23.76 67.51 29.08 65.08 C 34.39 62.64 41.75 66.14 39.00 70.00
C 40.31 71.54 41.40 69.71 43.00 70.00
C 46.11 69.69 57.24 65.96 60.22 69.78 C 63.20 73.59 59.91 83.75 61.00 89.00 C 62.09 94.25 60.01 102.36 61.00 108.00 C 61.99 113.64 59.48 122.58 61.00 128.00 C 62.52 133.42 57.93 143.61 61.00 148.00
C 63.20 149.34 66.16 149.05 69.00 149.00
C 69.00 122.67 69.00 96.33 69.00 70.00
C 81.48 67.50 76.31 82.20 77.00 91.00 C 77.69 99.80 76.64 110.78 77.00 120.00 C 77.36 129.22 76.73 139.67 77.00 149.00
C 80.00 149.00 83.00 149.00 86.00 149.00
C 86.00 122.67 86.00 96.33 86.00 70.00
C 95.05 70.84 102.40 70.68 109.08 65.08 C 115.76 59.49 126.36 71.03 123.00 78.00
C 119.99 79.64 116.66 87.55 109.00 83.00
C 106.44 82.59 108.87 84.12 107.00 82.00
C 103.48 78.00 99.84 77.06 94.00 78.00
C 94.00 101.00 94.00 124.00 94.00 147.00
C 107.48 145.10 120.91 139.22 131.00 130.00
C 132.03 128.68 135.80 124.93 137.00 124.00
C 152.02 112.32 146.71 91.19 148.00 73.00 C 149.29 54.81 148.60 33.32 134.70 21.30 C 120.80 9.28 107.96 3.81 91.00 0.00
L 55.00 0.00
C 33.29 4.39 10.28 16.10 0.00 37.00 Z"/>
</g>
<g fill="None" fill-opacity="0.0" stroke="#000000" stroke-opacity="0.00" stroke-width="0.3"><path d="
M 137.00 124.00 
C 136.55 124.60 132.18 128.46 134.00 131.00
C 132.72 131.53 132.14 130.03 131.00 130.00
C 120.91 139.22 107.48 145.10 94.00 147.00
C 94.00 124.00 94.00 101.00 94.00 78.00
C 99.84 77.06 103.48 78.00 107.00 82.00
C 107.03 81.61 109.87 79.57 110.00 79.00
C 110.41 80.56 109.54 81.69 109.00 83.00
C 116.66 87.55 119.99 79.64 123.00 78.00
C 126.36 71.03 115.76 59.49 109.08 65.08 C 102.40 70.68 95.05 70.84 86.00 70.00
C 86.00 96.33 86.00 122.67 86.00 149.00
C 83.00 149.00 80.00 149.00 77.00 149.00
C 76.73 139.67 77.36 129.22 77.00 120.00 C 76.64 110.78 77.69 99.80 77.00 91.00 C 76.31 82.20 81.48 67.50 69.00 70.00
C 69.00 96.33 69.00 122.67 69.00 149.00
C 66.16 149.05 63.20 149.34 61.00 148.00
C 58.45 146.45 59.96 147.71 60.00 145.00
C 57.78 125.36 58.11 101.58 60.00 82.00
C 60.00 67.79 55.84 70.32 43.00 70.00
C 41.40 69.71 40.31 71.54 39.00 70.00
C 41.75 66.14 34.39 62.64 29.08 65.08 C 23.76 67.51 21.70 72.86 24.00 79.00
C 23.81 78.03 27.44 75.89 24.00 75.00
C 27.41 75.86 28.74 68.59 25.00 70.00
C 26.50 68.32 27.78 66.41 30.00 66.00
C 29.07 67.14 28.92 68.55 29.00 70.00
C 34.15 64.85 41.98 74.43 36.00 78.00
C 38.25 79.76 38.08 80.69 41.00 80.00
C 41.98 75.82 48.66 78.98 52.00 78.00
C 52.00 101.00 52.00 124.00 52.00 147.00
C 30.75 144.23 10.68 130.86 0.00 112.00
L 0.00 234.00
L 803.00 234.00
L 803.00 0.00
L 91.00 0.00
C 107.96 3.81 120.80 9.28 134.70 21.30 C 148.60 33.32 149.29 54.81 148.00 73.00 C 146.71 91.19 152.02 112.32 137.00 124.00
M 234.00 40.00 
C 234.25 42.72 233.02 46.14 233.00 48.00
C 233.16 49.69 235.04 50.57 233.00 52.00
C 228.08 55.45 216.52 49.41 211.00 52.00
C 211.00 72.33 211.00 92.67 211.00 113.00
C 205.67 113.00 200.33 113.00 195.00 113.00
C 190.83 110.99 193.13 99.28 193.00 94.00 C 192.87 88.72 192.09 78.36 193.00 73.00 C 193.91 67.64 190.14 55.97 194.00 52.00
C 187.42 49.33 177.85 54.00 171.00 52.00
C 171.65 46.28 170.03 40.00 171.00 35.00
C 177.88 40.61 192.96 37.66 203.00 38.00 C 213.04 38.34 227.20 39.28 234.00 36.00
C 234.00 37.33 234.00 38.67 234.00 40.00
M 355.00 51.00 
C 354.05 53.51 354.28 53.70 353.00 55.00
C 349.83 61.98 342.94 67.85 340.00 75.00
C 347.06 80.39 349.39 89.69 355.00 96.00
C 356.03 93.34 355.69 95.19 358.00 96.00
C 357.92 97.26 355.94 96.56 356.00 98.00
C 359.37 102.39 362.40 107.92 364.00 113.00
C 352.52 115.84 342.65 112.05 338.70 102.30 C 334.75 92.55 329.77 87.13 324.00 80.00
C 321.76 85.88 323.58 83.75 320.00 80.00
C 322.19 90.52 320.44 102.06 321.00 113.00
C 315.00 113.00 309.00 113.00 303.00 113.00
C 303.00 87.33 303.00 61.67 303.00 36.00
C 306.96 35.84 306.98 36.39 304.00 38.00
C 310.66 37.89 317.72 38.87 323.00 36.00
C 317.94 45.02 323.45 57.36 320.00 67.00
C 328.84 65.11 333.35 58.36 337.75 48.75 C 342.16 39.15 351.49 35.74 363.00 37.00
C 362.50 42.45 357.85 46.78 355.00 51.00
M 496.00 105.00 
C 496.16 104.67 497.78 107.53 497.00 108.00
C 495.72 108.53 495.14 107.03 494.00 107.00
C 492.62 108.86 491.74 109.45 494.00 111.00
C 480.55 112.31 464.51 119.49 449.75 110.25 C 435.00 101.00 437.27 81.82 437.78 65.78 C 438.29 49.74 446.09 37.72 461.67 36.67 C 477.25 35.62 496.73 37.13 499.98 55.02 C 503.22 72.92 504.55 89.35 496.00 105.00
M 259.00 55.00 
C 258.21 56.90 258.97 57.30 259.00 59.00
C 259.04 61.59 259.41 64.10 258.00 66.00
C 258.05 66.50 258.00 67.00 258.00 67.00
C 262.83 67.44 269.35 66.39 274.00 67.00 C 278.65 67.61 286.03 64.92 288.00 69.00
C 289.56 72.23 287.97 78.60 286.00 80.00
C 282.22 82.67 271.90 81.17 267.00 81.00
C 262.96 80.86 260.83 79.43 259.00 83.00
C 258.23 85.40 259.49 88.52 259.00 91.00
C 258.77 92.16 257.94 92.62 258.00 94.00
C 261.10 100.21 265.82 98.50 272.00 99.00 C 278.18 99.50 285.49 97.50 291.00 99.00 C 296.51 100.50 290.12 112.46 295.00 113.00
C 288.42 112.46 280.44 113.73 274.00 113.00 C 267.56 112.27 257.86 114.34 252.00 113.00 C 246.14 111.66 242.61 107.51 241.08 101.92 C 239.54 96.33 241.94 87.32 241.00 81.00 C 240.06 74.68 242.10 65.43 241.00 59.00 C 239.90 52.57 243.37 45.73 242.00 42.00
C 257.15 33.53 276.02 38.53 293.00 38.00
C 293.17 42.81 293.06 47.49 292.00 52.00
C 281.63 53.86 266.16 48.19 259.00 55.00
M 424.00 41.00 
C 427.19 49.74 427.27 61.86 425.00 71.00
C 423.33 72.58 420.19 71.97 418.00 73.00
C 423.07 76.08 426.49 79.85 428.32 85.68 C 430.15 91.50 426.83 101.53 430.00 104.00
C 416.25 120.00 389.93 112.57 371.00 113.00
C 370.34 87.75 372.33 61.80 370.00 37.00
C 388.05 37.47 408.29 34.91 424.00 41.00
M 569.00 38.00 
C 569.00 42.67 569.00 47.33 569.00 52.00
C 561.67 52.00 554.33 52.00 547.00 52.00
C 547.00 72.33 547.00 92.67 547.00 113.00
C 541.00 113.00 535.00 113.00 529.00 113.00
C 529.00 92.67 529.00 72.33 529.00 52.00
C 521.33 52.00 513.67 52.00 506.00 52.00
C 508.10 47.80 506.50 42.61 507.00 38.00
C 527.67 38.00 548.33 38.00 569.00 38.00
M 116.00 69.00 
C 121.23 71.32 117.64 82.59 111.33 79.67 C 105.01 76.74 108.45 65.66 116.00 69.00
M 121.00 76.00 
C 117.67 70.82 124.58 70.33 121.00 76.00
M 119.00 82.00 
C 113.95 82.16 118.67 77.57 119.00 82.00
M 142.00 121.00 
C 142.74 121.74 141.18 120.18 142.00 121.00
M 129.00 134.00 
C 129.74 134.74 128.18 133.18 129.00 134.00
M 523.00 225.00 
C 521.91 224.33 520.00 224.15 519.00 223.00
C 519.01 223.96 519.40 226.15 519.00 227.00
C 518.02 229.07 505.18 228.69 504.00 227.00
C 500.86 222.51 505.43 212.70 504.00 207.00 C 502.57 201.30 504.66 193.27 504.00 187.00 C 503.34 180.73 504.33 173.58 504.00 167.00 C 503.67 160.42 504.25 152.69 504.00 146.00
C 509.33 146.00 514.67 146.00 520.00 146.00
C 521.02 154.84 519.49 163.64 520.00 173.00
C 539.30 160.09 554.86 176.63 556.00 196.00 C 557.14 215.37 543.97 238.55 523.00 225.00
M 673.00 147.00 
C 684.07 149.17 679.56 167.57 668.00 164.00 C 656.44 160.43 661.46 144.74 673.00 147.00
M 435.00 225.00 
C 435.03 225.37 436.88 226.96 436.00 228.00
C 429.98 226.55 420.16 231.23 417.00 225.00
C 409.44 215.52 408.84 195.29 392.00 200.00
C 393.62 208.34 393.70 219.07 392.00 227.00
C 390.85 228.15 376.60 230.73 375.26 226.74 C 373.92 222.76 375.23 213.19 375.00 208.00 C 374.77 202.81 374.74 193.40 375.00 188.00 C 375.26 182.60 373.97 173.85 375.00 169.00 C 376.03 164.15 372.21 152.65 376.00 150.00
C 381.08 146.45 392.87 152.00 399.00 150.00 C 405.13 148.00 413.69 151.10 419.22 152.78 C 424.76 154.45 428.84 158.34 431.31 163.70 C 433.77 169.05 433.77 178.17 431.68 183.68 C 429.59 189.19 425.19 193.06 420.00 195.00
C 424.56 205.35 431.12 214.45 435.00 225.00
M 645.00 182.00 
C 648.71 189.47 643.03 202.79 645.00 211.00
C 647.36 214.03 649.19 216.63 655.00 215.00
C 655.00 219.00 655.00 223.00 655.00 227.00
C 646.42 230.70 631.97 229.98 629.08 218.92 C 626.18 207.87 629.01 193.68 628.00 182.00
C 618.73 184.96 619.49 176.58 620.00 170.00
C 620.39 169.30 625.86 168.57 627.00 169.00
C 627.60 165.32 628.63 160.37 628.00 156.00
C 633.67 156.00 639.33 156.00 645.00 156.00
C 645.00 160.33 645.00 164.67 645.00 169.00
C 647.88 169.62 650.24 170.26 653.00 169.00
C 655.06 172.87 653.52 177.72 654.00 182.00
C 651.00 182.00 648.00 182.00 645.00 182.00
M 469.00 168.00 
C 504.73 168.11 504.84 230.03 468.00 229.00 C 431.16 227.97 432.23 167.89 469.00 168.00
M 590.00 168.00 
C 626.18 168.11 625.83 230.06 589.00 229.00 C 552.17 227.94 553.74 167.89 590.00 168.00
M 739.00 192.00 
C 733.67 192.00 728.33 192.00 723.00 192.00
C 724.16 183.89 712.24 178.26 707.25 185.25 C 702.26 192.24 703.45 202.19 705.93 210.07 C 708.41 217.96 723.78 216.38 723.00 207.00
C 728.33 207.00 733.67 207.00 739.00 207.00
C 739.28 227.40 710.27 235.64 696.92 223.08 C 683.57 210.52 683.77 185.95 697.75 173.75 C 711.73 161.55 740.24 171.25 739.00 192.00
M 793.00 188.00 
C 787.33 188.00 781.67 188.00 776.00 188.00
C 776.13 173.61 754.52 184.36 764.08 189.92 C 773.64 195.48 781.64 192.09 788.75 200.25 C 795.86 208.41 793.34 216.99 786.25 223.25 C 779.17 229.52 767.41 229.99 758.78 227.22 C 750.15 224.46 742.32 218.04 743.00 208.00
C 748.33 208.00 753.67 208.00 759.00 208.00
C 754.38 220.17 780.95 217.75 776.06 209.92 C 771.18 202.09 758.89 205.37 751.75 199.25 C 744.62 193.12 742.44 182.66 749.70 175.70 C 756.96 168.74 766.37 167.40 776.00 169.00 C 785.63 170.60 792.23 178.88 793.00 188.00
M 675.00 170.00 
C 675.50 170.00 676.00 170.00 676.00 170.00
C 679.22 167.44 679.48 181.24 679.00 186.00 C 678.52 190.76 679.25 201.17 679.00 207.00 C 678.75 212.83 679.19 221.88 679.00 228.00
C 674.00 228.00 669.00 228.00 664.00 228.00
C 659.64 225.85 662.24 214.72 662.00 210.00 C 661.76 205.28 661.22 194.75 662.00 190.00 C 662.78 185.25 659.38 172.80 663.00 170.00
C 663.13 169.90 666.55 169.07 667.00 169.00
C 669.55 168.58 673.18 168.65 675.00 170.00 Z"/>
</g>
<g fill="None" fill-opacity="0.0" stroke="#23316B" stroke-opacity="0.93" stroke-width="0.3"><path d="
M 194.00 52.00 
C 196.79 53.13 194.39 64.49 195.00 70.00 C 195.61 75.51 194.70 84.63 195.00 91.00 C 195.30 97.37 194.77 106.39 195.00 113.00
C 200.33 113.00 205.67 113.00 211.00 113.00
C 211.00 92.67 211.00 72.33 211.00 52.00
C 216.52 49.41 228.08 55.45 233.00 52.00
C 231.01 49.81 231.92 39.28 233.00 40.00
C 233.35 40.23 234.00 40.00 234.00 40.00
C 234.00 38.67 234.00 37.33 234.00 36.00
C 227.20 39.28 213.04 38.34 203.00 38.00 C 192.96 37.66 177.88 40.61 171.00 35.00
C 170.03 40.00 171.65 46.28 171.00 52.00
C 177.85 54.00 187.42 49.33 194.00 52.00 Z"/>
</g>
<g fill="None" fill-opacity="0.0" stroke="#22306A" stroke-opacity="0.89" stroke-width="0.3"><path d="
M 356.00 98.00 
C 354.62 96.20 355.80 98.03 355.00 96.00
C 349.39 89.69 347.06 80.39 340.00 75.00
C 342.94 67.85 349.83 61.98 353.00 55.00
C 353.85 53.14 353.80 52.61 355.00 51.00
C 357.85 46.78 362.50 42.45 363.00 37.00
C 351.49 35.74 342.16 39.15 337.75 48.75 C 333.35 58.36 328.84 65.11 320.00 67.00
C 323.45 57.36 317.94 45.02 323.00 36.00
C 317.72 38.87 310.66 37.89 304.00 38.00
C 306.98 36.39 306.96 35.84 303.00 36.00
C 303.00 61.67 303.00 87.33 303.00 113.00
C 309.00 113.00 315.00 113.00 321.00 113.00
C 320.44 102.06 322.19 90.52 320.00 80.00
C 323.58 83.75 321.76 85.88 324.00 80.00
C 329.77 87.13 334.75 92.55 338.70 102.30 C 342.65 112.05 352.52 115.84 364.00 113.00
C 362.40 107.92 359.37 102.39 356.00 98.00 Z"/>
</g>
<g fill="None" fill-opacity="0.0" stroke="#23316A" stroke-opacity="0.91" stroke-width="0.3"><path d="
M 494.00 107.00 
C 494.65 106.12 495.33 105.69 496.00 105.00
C 504.55 89.35 503.22 72.92 499.98 55.02 C 496.73 37.13 477.25 35.62 461.67 36.67 C 446.09 37.72 438.29 49.74 437.78 65.78 C 437.27 81.82 435.00 101.00 449.75 110.25 C 464.51 119.49 480.55 112.31 494.00 111.00
C 491.74 109.45 492.62 108.86 494.00 107.00
M 473.00 51.00 
C 484.11 52.28 483.72 66.85 483.78 76.22 C 483.83 85.59 483.41 98.92 470.99 99.99 C 458.58 101.06 455.06 87.88 456.00 78.00 C 456.94 68.12 453.64 52.77 466.00 51.00
C 467.40 50.38 466.08 49.57 469.01 49.01 C 471.94 48.46 471.80 50.53 473.00 51.00 Z"/>
</g>
<g fill="None" fill-opacity="0.0" stroke="#23316A" stroke-opacity="0.91" stroke-width="0.3"><path d="
M 258.00 94.00 
C 256.67 91.34 254.25 77.55 263.00 79.00 C 271.75 80.45 278.43 77.91 287.00 79.00
C 287.61 75.83 285.75 71.35 288.00 69.00
C 286.03 64.92 278.65 67.61 274.00 67.00 C 269.35 66.39 262.83 67.44 258.00 67.00
C 256.66 68.40 257.99 63.94 257.00 61.00 C 256.01 58.06 258.43 55.55 259.00 55.00
C 266.16 48.19 281.63 53.86 292.00 52.00
C 293.06 47.49 293.17 42.81 293.00 38.00
C 276.02 38.53 257.15 33.53 242.00 42.00
C 243.37 45.73 239.90 52.57 241.00 59.00 C 242.10 65.43 240.06 74.68 241.00 81.00 C 241.94 87.32 239.54 96.33 241.08 101.92 C 242.61 107.51 246.14 111.66 252.00 113.00 C 257.86 114.34 267.56 112.27 274.00 113.00 C 280.44 113.73 288.42 112.46 295.00 113.00
C 290.12 112.46 296.51 100.50 291.00 99.00 C 285.49 97.50 278.18 99.50 272.00 99.00 C 265.82 98.50 261.10 100.21 258.00 94.00 Z"/>
</g>
<g fill="None" fill-opacity="0.0" stroke="#23316A" stroke-opacity="0.91" stroke-width="0.3"><path d="
M 424.00 41.00 
C 408.29 34.91 388.05 37.47 370.00 37.00
C 372.33 61.80 370.34 87.75 371.00 113.00
C 389.93 112.57 416.25 120.00 430.00 104.00
C 426.83 101.53 430.15 91.50 428.32 85.68 C 426.49 79.85 423.07 76.08 418.00 73.00
C 420.19 71.97 423.33 72.58 425.00 71.00
C 427.27 61.86 427.19 49.74 424.00 41.00
M 389.00 68.00 
C 389.00 62.00 389.00 56.00 389.00 50.00
C 397.13 50.18 409.97 47.68 409.98 59.02 C 409.98 70.37 397.14 67.93 389.00 68.00
M 405.00 100.00 
C 403.89 100.52 388.57 104.83 387.26 100.74 C 385.94 96.66 385.44 82.47 388.00 80.00
C 388.26 79.75 389.00 80.00 389.00 80.00
C 395.33 80.00 405.23 77.48 409.75 83.25 C 414.28 89.02 410.43 97.46 405.00 100.00 Z"/>
</g>
<g fill="None" fill-opacity="0.0" stroke="#23316A" stroke-opacity="0.90" stroke-width="0.3"><path d="
M 569.00 38.00 
C 548.33 38.00 527.67 38.00 507.00 38.00
C 506.50 42.61 508.10 47.80 506.00 52.00
C 513.67 52.00 521.33 52.00 529.00 52.00
C 529.00 72.33 529.00 92.67 529.00 113.00
C 535.00 113.00 541.00 113.00 547.00 113.00
C 547.00 92.67 547.00 72.33 547.00 52.00
C 554.33 52.00 561.67 52.00 569.00 52.00
C 569.00 47.33 569.00 42.67 569.00 38.00 Z"/>
</g>
<g fill="None" fill-opacity="0.0" stroke="#1C275A" stroke-opacity="0.60" stroke-width="0.3"><path d="
M 233.00 52.00 
C 235.04 50.57 233.16 49.69 233.00 48.00
C 232.76 45.48 232.77 42.52 233.00 40.00
C 231.92 39.28 231.01 49.81 233.00 52.00 Z"/>
</g>
<g fill="None" fill-opacity="0.0" stroke="#000055" stroke-opacity="0.01" stroke-width="0.3"><path d="
M 233.00 48.00 
C 233.02 46.14 234.25 42.72 234.00 40.00
C 234.00 40.00 233.35 40.23 233.00 40.00
C 232.77 42.52 232.76 45.48 233.00 48.00 Z"/>
</g>
<g fill="None" fill-opacity="0.0" stroke="#233357" stroke-opacity="0.44" stroke-width="0.3"><path d="
M 466.00 51.00 
C 468.08 50.70 470.91 50.76 473.00 51.00
C 471.80 50.53 471.94 48.46 469.01 49.01 C 466.08 49.57 467.40 50.38 466.00 51.00 Z"/>
</g>
<g fill="None" fill-opacity="0.0" stroke="#000000" stroke-opacity="0.00" stroke-width="0.3"><path d="
M 389.00 68.00 
C 397.14 67.93 409.98 70.37 409.98 59.02 C 409.97 47.68 397.13 50.18 389.00 50.00
C 389.00 56.00 389.00 62.00 389.00 68.00 Z"/>
</g>
<g fill="None" fill-opacity="0.0" stroke="#1E305B" stroke-opacity="0.38" stroke-width="0.3"><path d="
M 194.00 52.00 
C 190.14 55.97 193.91 67.64 193.00 73.00 C 192.09 78.36 192.87 88.72 193.00 94.00 C 193.13 99.28 190.83 110.99 195.00 113.00
C 194.77 106.39 195.30 97.37 195.00 91.00 C 194.70 84.63 195.61 75.51 195.00 70.00 C 194.39 64.49 196.79 53.13 194.00 52.00 Z"/>
</g>
<g fill="None" fill-opacity="0.0" stroke="#030F54" stroke-opacity="0.09" stroke-width="0.3"><path d="
M 353.00 55.00 
C 354.28 53.70 354.05 53.51 355.00 51.00
C 353.80 52.61 353.85 53.14 353.00 55.00 Z"/>
</g>
<g fill="None" fill-opacity="0.0" stroke="#000000" stroke-opacity="0.00" stroke-width="0.3"><path d="
M 473.00 51.00 
C 470.91 50.76 468.08 50.70 466.00 51.00
C 453.64 52.77 456.94 68.12 456.00 78.00 C 455.06 87.88 458.58 101.06 470.99 99.99 C 483.41 98.92 483.83 85.59 483.78 76.22 C 483.72 66.85 484.11 52.28 473.00 51.00 Z"/>
</g>
<g fill="None" fill-opacity="0.0" stroke="#1F2B63" stroke-opacity="0.64" stroke-width="0.3"><path d="
M 258.00 67.00 
C 258.00 67.00 258.05 66.50 258.00 66.00
C 257.76 63.44 258.84 60.77 259.00 59.00
C 258.97 57.30 258.21 56.90 259.00 55.00
C 258.43 55.55 256.01 58.06 257.00 61.00 C 257.99 63.94 256.66 68.40 258.00 67.00 Z"/>
</g>
<g fill="None" fill-opacity="0.0" stroke="#004040" stroke-opacity="0.02" stroke-width="0.3"><path d="
M 258.00 66.00 
C 259.41 64.10 259.04 61.59 259.00 59.00
C 258.84 60.77 257.76 63.44 258.00 66.00 Z"/>
</g>
<g fill="None" fill-opacity="0.0" stroke="#031157" stroke-opacity="0.03" stroke-width="0.3"><path d="
M 24.00 79.00 
C 24.72 80.92 24.93 81.94 27.00 83.00
C 25.10 81.66 25.47 79.89 26.00 78.00
C 27.38 79.36 28.53 77.67 30.00 79.00
C 26.60 76.60 28.71 72.92 29.00 70.00
C 28.92 68.55 29.07 67.14 30.00 66.00
C 27.78 66.41 26.50 68.32 25.00 70.00
C 28.74 68.59 27.41 75.86 24.00 75.00
C 27.44 75.89 23.81 78.03 24.00 79.00 Z"/>
</g>
<g fill="None" fill-opacity="0.0" stroke="#1E2B60" stroke-opacity="0.78" stroke-width="0.3"><path d="
M 29.00 70.00 
C 28.71 72.92 26.60 76.60 30.00 79.00
C 31.88 79.28 33.07 80.69 35.00 79.00
C 35.26 78.77 35.68 78.19 36.00 78.00
C 41.98 74.43 34.15 64.85 29.00 70.00 Z"/>
</g>
<g fill="None" fill-opacity="0.0" stroke="#203067" stroke-opacity="0.58" stroke-width="0.3"><path d="
M 43.00 70.00 
C 55.84 70.32 60.00 67.79 60.00 82.00
C 60.00 102.99 60.29 124.01 60.00 145.00
C 59.96 147.71 58.45 146.45 61.00 148.00
C 57.93 143.61 62.52 133.42 61.00 128.00 C 59.48 122.58 61.99 113.64 61.00 108.00 C 60.01 102.36 62.09 94.25 61.00 89.00 C 59.91 83.75 63.20 73.59 60.22 69.78 C 57.24 65.96 46.11 69.69 43.00 70.00 Z"/>
</g>
<g fill="None" fill-opacity="0.0" stroke="#1F2C5F" stroke-opacity="0.74" stroke-width="0.3"><path d="
M 116.00 69.00 
C 108.45 65.66 105.01 76.74 111.33 79.67 C 117.64 82.59 121.23 71.32 116.00 69.00 Z"/>
</g>
<g fill="None" fill-opacity="0.0" stroke="#1E2E5E" stroke-opacity="0.55" stroke-width="0.3"><path d="
M 258.00 94.00 
C 257.94 92.62 258.77 92.16 259.00 91.00
C 259.16 88.45 257.48 85.98 259.00 83.00
C 260.83 79.43 262.96 80.86 267.00 81.00
C 270.70 80.75 282.40 81.74 286.00 80.00
C 287.97 78.60 289.56 72.23 288.00 69.00
C 285.75 71.35 287.61 75.83 287.00 79.00
C 278.43 77.91 271.75 80.45 263.00 79.00 C 254.25 77.55 256.67 91.34 258.00 94.00 Z"/>
</g>
<g fill="None" fill-opacity="0.0" stroke="#001479" stroke-opacity="0.01" stroke-width="0.3"><path d="
M 121.00 76.00 
C 124.58 70.33 117.67 70.82 121.00 76.00 Z"/>
</g>
<g fill="None" fill-opacity="0.0" stroke="#000000" stroke-opacity="0.00" stroke-width="0.3"><path d="
M 27.00 83.00 
C 30.01 84.53 35.00 84.44 38.00 83.00
C 38.01 80.21 35.29 81.89 35.00 79.00
C 33.07 80.69 31.88 79.28 30.00 79.00
C 28.53 77.67 27.38 79.36 26.00 78.00
C 25.47 79.89 25.10 81.66 27.00 83.00 Z"/>
</g>
<g fill="None" fill-opacity="0.0" stroke="#071354" stroke-opacity="0.03" stroke-width="0.3"><path d="
M 35.00 79.00 
C 35.29 81.89 38.01 80.21 38.00 83.00
C 39.51 82.27 39.85 81.03 41.00 80.00
C 38.08 80.69 38.25 79.76 36.00 78.00
C 35.68 78.19 35.26 78.77 35.00 79.00 Z"/>
</g>
<g fill="None" fill-opacity="0.0" stroke="#000D3F" stroke-opacity="0.10" stroke-width="0.3"><path d="
M 107.00 82.00 
C 108.87 84.12 106.44 82.59 109.00 83.00
C 109.54 81.69 110.41 80.56 110.00 79.00
C 109.87 79.57 107.03 81.61 107.00 82.00 Z"/>
</g>
<g fill="None" fill-opacity="0.0" stroke="#00005D" stroke-opacity="0.01" stroke-width="0.3"><path d="
M 119.00 82.00 
C 118.67 77.57 113.95 82.16 119.00 82.00 Z"/>
</g>
<g fill="None" fill-opacity="0.0" stroke="#000080" stroke-opacity="0.01" stroke-width="0.3"><path d="
M 267.00 81.00 
C 271.90 81.17 282.22 82.67 286.00 80.00
C 282.40 81.74 270.70 80.75 267.00 81.00 Z"/>
</g>
<g fill="None" fill-opacity="0.0" stroke="#212A60" stroke-opacity="0.62" stroke-width="0.3"><path d="
M 405.00 100.00 
C 401.19 100.64 396.87 99.86 393.00 100.00
C 392.11 100.03 389.61 102.00 388.00 101.00
C 388.00 94.00 388.00 87.00 388.00 80.00
C 385.44 82.47 385.94 96.66 387.26 100.74 C 388.57 104.83 403.89 100.52 405.00 100.00 Z"/>
</g>
<g fill="None" fill-opacity="0.0" stroke="#202B56" stroke-opacity="0.06" stroke-width="0.3"><path d="
M 393.00 100.00 
C 391.72 99.74 390.29 100.20 389.00 100.00
C 389.00 93.33 389.00 86.67 389.00 80.00
C 389.00 80.00 388.26 79.75 388.00 80.00
C 388.00 87.00 388.00 94.00 388.00 101.00
C 389.61 102.00 392.11 100.03 393.00 100.00 Z"/>
</g>
<g fill="None" fill-opacity="0.0" stroke="#000000" stroke-opacity="0.00" stroke-width="0.3"><path d="
M 393.00 100.00 
C 396.87 99.86 401.19 100.64 405.00 100.00
C 410.43 97.46 414.28 89.02 409.75 83.25 C 405.23 77.48 395.33 80.00 389.00 80.00
C 389.00 86.67 389.00 93.33 389.00 100.00
C 390.29 100.20 391.72 99.74 393.00 100.00 Z"/>
</g>
<g fill="None" fill-opacity="0.0" stroke="#000080" stroke-opacity="0.01" stroke-width="0.3"><path d="
M 60.00 145.00 
C 60.29 124.01 60.00 102.99 60.00 82.00
C 58.11 101.58 57.78 125.36 60.00 145.00 Z"/>
</g>
<g fill="None" fill-opacity="0.0" stroke="#404040" stroke-opacity="0.02" stroke-width="0.3"><path d="
M 259.00 91.00 
C 259.49 88.52 258.23 85.40 259.00 83.00
C 257.48 85.98 259.16 88.45 259.00 91.00 Z"/>
</g>
<g fill="None" fill-opacity="0.0" stroke="#030E56" stroke-opacity="0.09" stroke-width="0.3"><path d="
M 355.00 96.00 
C 355.80 98.03 354.62 96.20 356.00 98.00
C 355.94 96.56 357.92 97.26 358.00 96.00
C 355.69 95.19 356.03 93.34 355.00 96.00 Z"/>
</g>
<g fill="None" fill-opacity="0.0" stroke="#071651" stroke-opacity="0.02" stroke-width="0.3"><path d="
M 494.00 107.00 
C 495.14 107.03 495.72 108.53 497.00 108.00
C 497.78 107.53 496.16 104.67 496.00 105.00
C 495.33 105.69 494.65 106.12 494.00 107.00 Z"/>
</g>
<g fill="None" fill-opacity="0.0" stroke="#000080" stroke-opacity="0.01" stroke-width="0.3"><path d="
M 142.00 121.00 
C 141.18 120.18 142.74 121.74 142.00 121.00 Z"/>
</g>
<g fill="None" fill-opacity="0.0" stroke="#0E1E51" stroke-opacity="0.31" stroke-width="0.3"><path d="
M 131.00 130.00 
C 132.14 130.03 132.72 131.53 134.00 131.00
C 132.18 128.46 136.55 124.60 137.00 124.00
C 135.80 124.93 132.03 128.68 131.00 130.00 Z"/>
</g>
<g fill="None" fill-opacity="0.0" stroke="#000080" stroke-opacity="0.01" stroke-width="0.3"><path d="
M 129.00 134.00 
C 128.18 133.18 129.74 134.74 129.00 134.00 Z"/>
</g>
<g fill="None" fill-opacity="0.0" stroke="#6B7393" stroke-opacity="0.92" stroke-width="0.3"><path d="
M 504.00 227.00 
C 508.49 225.38 514.53 225.40 519.00 227.00
C 519.40 226.15 519.01 223.96 519.00 223.00
C 518.95 219.13 520.92 223.00 523.00 225.00
C 543.97 238.55 557.14 215.37 556.00 196.00 C 554.86 176.63 539.30 160.09 520.00 173.00
C 519.49 163.64 521.02 154.84 520.00 146.00
C 514.67 146.00 509.33 146.00 504.00 146.00
C 504.25 152.69 503.67 160.42 504.00 167.00 C 504.33 173.58 503.34 180.73 504.00 187.00 C 504.66 193.27 502.57 201.30 504.00 207.00 C 505.43 212.70 500.86 222.51 504.00 227.00
M 532.00 182.00 
C 545.14 184.58 542.55 217.23 528.00 215.00 C 513.45 212.77 516.56 178.97 532.00 182.00 Z"/>
</g>
<g fill="None" fill-opacity="0.0" stroke="#68708E" stroke-opacity="0.83" stroke-width="0.3"><path d="
M 673.00 147.00 
C 661.46 144.74 656.44 160.43 668.00 164.00 C 679.56 167.57 684.07 149.17 673.00 147.00 Z"/>
</g>
<g fill="None" fill-opacity="0.0" stroke="#65698D" stroke-opacity="0.45" stroke-width="0.3"><path d="
M 392.00 227.00 
C 387.48 224.87 381.94 226.52 377.00 226.00
C 376.34 200.75 378.33 174.80 376.00 150.00
C 372.21 152.65 376.03 164.15 375.00 169.00 C 373.97 173.85 375.26 182.60 375.00 188.00 C 374.74 193.40 374.77 202.81 375.00 208.00 C 375.23 213.19 373.92 222.76 375.26 226.74 C 376.60 230.73 390.85 228.15 392.00 227.00 Z"/>
</g>
<g fill="None" fill-opacity="0.0" stroke="#6B7394" stroke-opacity="0.93" stroke-width="0.3"><path d="
M 392.00 227.00 
C 393.70 219.07 393.62 208.34 392.00 200.00
C 408.84 195.29 409.44 215.52 417.00 225.00
C 421.50 227.93 430.28 225.64 435.00 225.00
C 431.12 214.45 424.56 205.35 420.00 195.00
C 425.19 193.06 429.59 189.19 431.68 183.68 C 433.77 178.17 433.77 169.05 431.31 163.70 C 428.84 158.34 424.76 154.45 419.22 152.78 C 413.69 151.10 405.13 148.00 399.00 150.00 C 392.87 152.00 381.08 146.45 376.00 150.00
C 378.33 174.80 376.34 200.75 377.00 226.00
C 381.94 226.52 387.48 224.87 392.00 227.00
M 393.00 184.00 
C 392.65 184.60 391.75 185.67 391.00 186.00
C 391.66 178.84 389.67 170.34 392.00 164.00
C 396.06 161.15 403.31 165.07 408.22 164.78 C 413.13 164.49 415.70 170.40 416.00 175.00 C 416.30 179.60 412.20 185.03 407.99 184.99 C 403.78 184.95 393.72 188.87 393.00 184.00 Z"/>
</g>
<g fill="None" fill-opacity="0.0" stroke="#6A7293" stroke-opacity="0.91" stroke-width="0.3"><path d="
M 627.00 169.00 
C 626.80 170.22 629.27 169.60 629.00 171.00
C 625.97 170.74 622.63 171.74 620.00 170.00
C 619.49 176.58 618.73 184.96 628.00 182.00
C 629.01 193.68 626.18 207.87 629.08 218.92 C 631.97 229.98 646.42 230.70 655.00 227.00
C 655.00 223.00 655.00 219.00 655.00 215.00
C 649.19 216.63 647.36 214.03 645.00 211.00
C 643.76 209.40 641.83 202.24 643.00 197.00 C 644.17 191.76 640.64 183.04 645.00 182.00
C 648.00 182.00 651.00 182.00 654.00 182.00
C 653.52 177.72 655.06 172.87 653.00 169.00
C 650.24 170.26 647.88 169.62 645.00 169.00
C 645.00 164.67 645.00 160.33 645.00 156.00
C 639.33 156.00 633.67 156.00 628.00 156.00
C 628.63 160.37 627.60 165.32 627.00 169.00 Z"/>
</g>
<g fill="None" fill-opacity="0.0" stroke="#666B92" stroke-opacity="0.51" stroke-width="0.3"><path d="
M 393.00 184.00 
C 392.93 183.51 393.00 183.00 393.00 183.00
C 390.76 179.97 392.72 175.85 393.00 173.00
C 393.00 169.97 393.56 166.63 392.00 164.00
C 389.67 170.34 391.66 178.84 391.00 186.00
C 391.75 185.67 392.65 184.60 393.00 184.00 Z"/>
</g>
<g fill="None" fill-opacity="0.0" stroke="#000000" stroke-opacity="0.00" stroke-width="0.3"><path d="
M 393.00 173.00 
C 393.00 176.33 393.00 179.67 393.00 183.00
C 393.00 183.00 392.93 183.51 393.00 184.00
C 393.72 188.87 403.78 184.95 407.99 184.99 C 412.20 185.03 416.30 179.60 416.00 175.00 C 415.70 170.40 413.13 164.49 408.22 164.78 C 403.31 165.07 396.06 161.15 392.00 164.00
C 393.56 166.63 393.00 169.97 393.00 173.00 Z"/>
</g>
<g fill="None" fill-opacity="0.0" stroke="#6B7292" stroke-opacity="0.90" stroke-width="0.3"><path d="
M 469.00 168.00 
C 432.23 167.89 431.16 227.97 468.00 229.00 C 504.84 230.03 504.73 168.11 469.00 168.00
M 470.00 182.00 
C 485.21 184.14 481.42 218.11 466.00 215.00 C 450.58 211.89 455.28 179.92 470.00 182.00 Z"/>
</g>
<g fill="None" fill-opacity="0.0" stroke="#6B7392" stroke-opacity="0.90" stroke-width="0.3"><path d="
M 590.00 168.00 
C 553.74 167.89 552.17 227.94 589.00 229.00 C 625.83 230.06 626.18 168.11 590.00 168.00
M 592.00 182.00 
C 606.25 184.79 602.18 218.94 587.00 215.00 C 571.82 211.06 576.95 179.05 592.00 182.00 Z"/>
</g>
<g fill="None" fill-opacity="0.0" stroke="#6A7292" stroke-opacity="0.89" stroke-width="0.3"><path d="
M 739.00 192.00 
C 740.24 171.25 711.73 161.55 697.75 173.75 C 683.77 185.95 683.57 210.52 696.92 223.08 C 710.27 235.64 739.28 227.40 739.00 207.00
C 733.67 207.00 728.33 207.00 723.00 207.00
C 723.78 216.38 708.41 217.96 705.93 210.07 C 703.45 202.19 702.26 192.24 707.25 185.25 C 712.24 178.26 724.16 183.89 723.00 192.00
C 728.33 192.00 733.67 192.00 739.00 192.00 Z"/>
</g>
<g fill="None" fill-opacity="0.0" stroke="#6A7292" stroke-opacity="0.87" stroke-width="0.3"><path d="
M 793.00 188.00 
C 792.23 178.88 785.63 170.60 776.00 169.00 C 766.37 167.40 756.96 168.74 749.70 175.70 C 742.44 182.66 744.62 193.12 751.75 199.25 C 758.89 205.37 771.18 202.09 776.06 209.92 C 780.95 217.75 754.38 220.17 759.00 208.00
C 753.67 208.00 748.33 208.00 743.00 208.00
C 742.32 218.04 750.15 224.46 758.78 227.22 C 767.41 229.99 779.17 229.52 786.25 223.25 C 793.34 216.99 795.86 208.41 788.75 200.25 C 781.64 192.09 773.64 195.48 764.08 189.92 C 754.52 184.36 776.13 173.61 776.00 188.00
C 781.67 188.00 787.33 188.00 793.00 188.00 Z"/>
</g>
<g fill="None" fill-opacity="0.0" stroke="#636D8B" stroke-opacity="0.37" stroke-width="0.3"><path d="
M 620.00 170.00 
C 622.63 171.74 625.97 170.74 629.00 171.00
C 629.27 169.60 626.80 170.22 627.00 169.00
C 625.86 168.57 620.39 169.30 620.00 170.00 Z"/>
</g>
<g fill="None" fill-opacity="0.0" stroke="#58628A" stroke-opacity="0.56" stroke-width="0.3"><path d="
M 663.00 170.00 
C 666.13 170.69 673.33 172.48 677.00 171.00
C 676.97 170.38 678.26 170.01 676.00 170.00
C 676.00 170.00 675.50 170.00 675.00 170.00
C 672.67 170.00 668.45 168.91 667.00 169.00
C 666.55 169.07 663.13 169.90 663.00 170.00 Z"/>
</g>
<g fill="None" fill-opacity="0.0" stroke="#808080" stroke-opacity="0.01" stroke-width="0.3"><path d="
M 675.00 170.00 
C 673.18 168.65 669.55 168.58 667.00 169.00
C 668.45 168.91 672.67 170.00 675.00 170.00 Z"/>
</g>
<g fill="None" fill-opacity="0.0" stroke="#64698A" stroke-opacity="0.43" stroke-width="0.3"><path d="
M 676.00 170.00 
C 678.26 170.01 676.97 170.38 677.00 171.00
C 677.97 189.62 676.27 208.37 677.00 227.00
C 672.83 227.64 667.34 225.71 664.00 228.00
C 669.00 228.00 674.00 228.00 679.00 228.00
C 679.19 221.88 678.75 212.83 679.00 207.00 C 679.25 201.17 678.52 190.76 679.00 186.00 C 679.48 181.24 679.22 167.44 676.00 170.00 Z"/>
</g>
<g fill="None" fill-opacity="0.0" stroke="#6B7494" stroke-opacity="0.94" stroke-width="0.3"><path d="
M 664.00 228.00 
C 667.34 225.71 672.83 227.64 677.00 227.00
C 676.27 208.37 677.97 189.62 677.00 171.00
C 673.33 172.48 666.13 170.69 663.00 170.00
C 659.38 172.80 662.78 185.25 662.00 190.00 C 661.22 194.75 661.76 205.28 662.00 210.00 C 662.24 214.72 659.64 225.85 664.00 228.00 Z"/>
</g>
<g fill="None" fill-opacity="0.0" stroke="#808080" stroke-opacity="0.02" stroke-width="0.3"><path d="
M 393.00 183.00 
C 393.00 179.67 393.00 176.33 393.00 173.00
C 392.72 175.85 390.76 179.97 393.00 183.00 Z"/>
</g>
<g fill="None" fill-opacity="0.0" stroke="#676E8B" stroke-opacity="0.45" stroke-width="0.3"><path d="
M 645.00 211.00 
C 643.03 202.79 648.71 189.47 645.00 182.00
C 640.64 183.04 644.17 191.76 643.00 197.00 C 641.83 202.24 643.76 209.40 645.00 211.00 Z"/>
</g>
<g fill="None" fill-opacity="0.0" stroke="#000000" stroke-opacity="0.00" stroke-width="0.3"><path d="
M 470.00 182.00 
C 455.28 179.92 450.58 211.89 466.00 215.00 C 481.42 218.11 485.21 184.14 470.00 182.00 Z"/>
</g>
<g fill="None" fill-opacity="0.0" stroke="#000000" stroke-opacity="0.00" stroke-width="0.3"><path d="
M 532.00 182.00 
C 516.56 178.97 513.45 212.77 528.00 215.00 C 542.55 217.23 545.14 184.58 532.00 182.00 Z"/>
</g>
<g fill="None" fill-opacity="0.0" stroke="#000000" stroke-opacity="0.00" stroke-width="0.3"><path d="
M 592.00 182.00 
C 576.95 179.05 571.82 211.06 587.00 215.00 C 602.18 218.94 606.25 184.79 592.00 182.00 Z"/>
</g>
<g fill="None" fill-opacity="0.0" stroke="#656D89" stroke-opacity="0.42" stroke-width="0.3"><path d="
M 519.00 223.00 
C 520.00 224.15 521.91 224.33 523.00 225.00
C 520.92 223.00 518.95 219.13 519.00 223.00 Z"/>
</g>
<g fill="None" fill-opacity="0.0" stroke="#60677F" stroke-opacity="0.47" stroke-width="0.3"><path d="
M 435.00 225.00 
C 430.28 225.64 421.50 227.93 417.00 225.00
C 420.16 231.23 429.98 226.55 436.00 228.00
C 436.88 226.96 435.03 225.37 435.00 225.00 Z"/>
</g>
<g fill="None" fill-opacity="0.0" stroke="#636885" stroke-opacity="0.46" stroke-width="0.3"><path d="
M 504.00 227.00 
C 505.18 228.69 518.02 229.07 519.00 227.00
C 514.53 225.40 508.49 225.38 504.00 227.00 Z"/>
</g>
<g fill="#000000" fill-opacity="0.00" stroke="None">
<path d="
M 0.00 37.00 
C 10.28 16.10 33.29 4.39 55.00 0.00
L 0.00 0.00
L 0.00 37.00 Z"/>
</g>
<g fill="#24326C" fill-opacity="0.96" stroke="None">
<path d="
M 0.00 37.00 
L 0.00 112.00
C 10.68 130.86 30.75 144.23 52.00 147.00
C 52.00 124.00 52.00 101.00 52.00 78.00
C 48.66 78.98 41.98 75.82 41.00 80.00
C 39.85 81.03 39.51 82.27 38.00 83.00
C 35.00 84.44 30.01 84.53 27.00 83.00
C 24.93 81.94 24.72 80.92 24.00 79.00
C 21.70 72.86 23.76 67.51 29.08 65.08 C 34.39 62.64 41.75 66.14 39.00 70.00
C 40.31 71.54 41.40 69.71 43.00 70.00
C 46.11 69.69 57.24 65.96 60.22 69.78 C 63.20 73.59 59.91 83.75 61.00 89.00 C 62.09 94.25 60.01 102.36 61.00 108.00 C 61.99 113.64 59.48 122.58 61.00 128.00 C 62.52 133.42 57.93 143.61 61.00 148.00
C 63.20 149.34 66.16 149.05 69.00 149.00
C 69.00 122.67 69.00 96.33 69.00 70.00
C 81.48 67.50 76.31 82.20 77.00 91.00 C 77.69 99.80 76.64 110.78 77.00 120.00 C 77.36 129.22 76.73 139.67 77.00 149.00
C 80.00 149.00 83.00 149.00 86.00 149.00
C 86.00 122.67 86.00 96.33 86.00 70.00
C 95.05 70.84 102.40 70.68 109.08 65.08 C 115.76 59.49 126.36 71.03 123.00 78.00
C 119.99 79.64 116.66 87.55 109.00 83.00
C 106.44 82.59 108.87 84.12 107.00 82.00
C 103.48 78.00 99.84 77.06 94.00 78.00
C 94.00 101.00 94.00 124.00 94.00 147.00
C 107.48 145.10 120.91 139.22 131.00 130.00
C 132.03 128.68 135.80 124.93 137.00 124.00
C 152.02 112.32 146.71 91.19 148.00 73.00 C 149.29 54.81 148.60 33.32 134.70 21.30 C 120.80 9.28 107.96 3.81 91.00 0.00
L 55.00 0.00
C 33.29 4.39 10.28 16.10 0.00 37.00 Z"/>
</g>
<g fill="#000000" fill-opacity="0.00" stroke="None">
<path d="
M 137.00 124.00 
C 136.55 124.60 132.18 128.46 134.00 131.00
C 132.72 131.53 132.14 130.03 131.00 130.00
C 120.91 139.22 107.48 145.10 94.00 147.00
C 94.00 124.00 94.00 101.00 94.00 78.00
C 99.84 77.06 103.48 78.00 107.00 82.00
C 107.03 81.61 109.87 79.57 110.00 79.00
C 110.41 80.56 109.54 81.69 109.00 83.00
C 116.66 87.55 119.99 79.64 123.00 78.00
C 126.36 71.03 115.76 59.49 109.08 65.08 C 102.40 70.68 95.05 70.84 86.00 70.00
C 86.00 96.33 86.00 122.67 86.00 149.00
C 83.00 149.00 80.00 149.00 77.00 149.00
C 76.73 139.67 77.36 129.22 77.00 120.00 C 76.64 110.78 77.69 99.80 77.00 91.00 C 76.31 82.20 81.48 67.50 69.00 70.00
C 69.00 96.33 69.00 122.67 69.00 149.00
C 66.16 149.05 63.20 149.34 61.00 148.00
C 58.45 146.45 59.96 147.71 60.00 145.00
C 57.78 125.36 58.11 101.58 60.00 82.00
C 60.00 67.79 55.84 70.32 43.00 70.00
C 41.40 69.71 40.31 71.54 39.00 70.00
C 41.75 66.14 34.39 62.64 29.08 65.08 C 23.76 67.51 21.70 72.86 24.00 79.00
C 23.81 78.03 27.44 75.89 24.00 75.00
C 27.41 75.86 28.74 68.59 25.00 70.00
C 26.50 68.32 27.78 66.41 30.00 66.00
C 29.07 67.14 28.92 68.55 29.00 70.00
C 34.15 64.85 41.98 74.43 36.00 78.00
C 38.25 79.76 38.08 80.69 41.00 80.00
C 41.98 75.82 48.66 78.98 52.00 78.00
C 52.00 101.00 52.00 124.00 52.00 147.00
C 30.75 144.23 10.68 130.86 0.00 112.00
L 0.00 234.00
L 803.00 234.00
L 803.00 0.00
L 91.00 0.00
C 107.96 3.81 120.80 9.28 134.70 21.30 C 148.60 33.32 149.29 54.81 148.00 73.00 C 146.71 91.19 152.02 112.32 137.00 124.00
M 234.00 40.00 
C 234.25 42.72 233.02 46.14 233.00 48.00
C 233.16 49.69 235.04 50.57 233.00 52.00
C 228.08 55.45 216.52 49.41 211.00 52.00
C 211.00 72.33 211.00 92.67 211.00 113.00
C 205.67 113.00 200.33 113.00 195.00 113.00
C 190.83 110.99 193.13 99.28 193.00 94.00 C 192.87 88.72 192.09 78.36 193.00 73.00 C 193.91 67.64 190.14 55.97 194.00 52.00
C 187.42 49.33 177.85 54.00 171.00 52.00
C 171.65 46.28 170.03 40.00 171.00 35.00
C 177.88 40.61 192.96 37.66 203.00 38.00 C 213.04 38.34 227.20 39.28 234.00 36.00
C 234.00 37.33 234.00 38.67 234.00 40.00
M 355.00 51.00 
C 354.05 53.51 354.28 53.70 353.00 55.00
C 349.83 61.98 342.94 67.85 340.00 75.00
C 347.06 80.39 349.39 89.69 355.00 96.00
C 356.03 93.34 355.69 95.19 358.00 96.00
C 357.92 97.26 355.94 96.56 356.00 98.00
C 359.37 102.39 362.40 107.92 364.00 113.00
C 352.52 115.84 342.65 112.05 338.70 102.30 C 334.75 92.55 329.77 87.13 324.00 80.00
C 321.76 85.88 323.58 83.75 320.00 80.00
C 322.19 90.52 320.44 102.06 321.00 113.00
C 315.00 113.00 309.00 113.00 303.00 113.00
C 303.00 87.33 303.00 61.67 303.00 36.00
C 306.96 35.84 306.98 36.39 304.00 38.00
C 310.66 37.89 317.72 38.87 323.00 36.00
C 317.94 45.02 323.45 57.36 320.00 67.00
C 328.84 65.11 333.35 58.36 337.75 48.75 C 342.16 39.15 351.49 35.74 363.00 37.00
C 362.50 42.45 357.85 46.78 355.00 51.00
M 496.00 105.00 
C 496.16 104.67 497.78 107.53 497.00 108.00
C 495.72 108.53 495.14 107.03 494.00 107.00
C 492.62 108.86 491.74 109.45 494.00 111.00
C 480.55 112.31 464.51 119.49 449.75 110.25 C 435.00 101.00 437.27 81.82 437.78 65.78 C 438.29 49.74 446.09 37.72 461.67 36.67 C 477.25 35.62 496.73 37.13 499.98 55.02 C 503.22 72.92 504.55 89.35 496.00 105.00
M 259.00 55.00 
C 258.21 56.90 258.97 57.30 259.00 59.00
C 259.04 61.59 259.41 64.10 258.00 66.00
C 258.05 66.50 258.00 67.00 258.00 67.00
C 262.83 67.44 269.35 66.39 274.00 67.00 C 278.65 67.61 286.03 64.92 288.00 69.00
C 289.56 72.23 287.97 78.60 286.00 80.00
C 282.22 82.67 271.90 81.17 267.00 81.00
C 262.96 80.86 260.83 79.43 259.00 83.00
C 258.23 85.40 259.49 88.52 259.00 91.00
C 258.77 92.16 257.94 92.62 258.00 94.00
C 261.10 100.21 265.82 98.50 272.00 99.00 C 278.18 99.50 285.49 97.50 291.00 99.00 C 296.51 100.50 290.12 112.46 295.00 113.00
C 288.42 112.46 280.44 113.73 274.00 113.00 C 267.56 112.27 257.86 114.34 252.00 113.00 C 246.14 111.66 242.61 107.51 241.08 101.92 C 239.54 96.33 241.94 87.32 241.00 81.00 C 240.06 74.68 242.10 65.43 241.00 59.00 C 239.90 52.57 243.37 45.73 242.00 42.00
C 257.15 33.53 276.02 38.53 293.00 38.00
C 293.17 42.81 293.06 47.49 292.00 52.00
C 281.63 53.86 266.16 48.19 259.00 55.00
M 424.00 41.00 
C 427.19 49.74 427.27 61.86 425.00 71.00
C 423.33 72.58 420.19 71.97 418.00 73.00
C 423.07 76.08 426.49 79.85 428.32 85.68 C 430.15 91.50 426.83 101.53 430.00 104.00
C 416.25 120.00 389.93 112.57 371.00 113.00
C 370.34 87.75 372.33 61.80 370.00 37.00
C 388.05 37.47 408.29 34.91 424.00 41.00
M 569.00 38.00 
C 569.00 42.67 569.00 47.33 569.00 52.00
C 561.67 52.00 554.33 52.00 547.00 52.00
C 547.00 72.33 547.00 92.67 547.00 113.00
C 541.00 113.00 535.00 113.00 529.00 113.00
C 529.00 92.67 529.00 72.33 529.00 52.00
C 521.33 52.00 513.67 52.00 506.00 52.00
C 508.10 47.80 506.50 42.61 507.00 38.00
C 527.67 38.00 548.33 38.00 569.00 38.00
M 116.00 69.00 
C 121.23 71.32 117.64 82.59 111.33 79.67 C 105.01 76.74 108.45 65.66 116.00 69.00
M 121.00 76.00 
C 117.67 70.82 124.58 70.33 121.00 76.00
M 119.00 82.00 
C 113.95 82.16 118.67 77.57 119.00 82.00
M 142.00 121.00 
C 142.74 121.74 141.18 120.18 142.00 121.00
M 129.00 134.00 
C 129.74 134.74 128.18 133.18 129.00 134.00
M 523.00 225.00 
C 521.91 224.33 520.00 224.15 519.00 223.00
C 519.01 223.96 519.40 226.15 519.00 227.00
C 518.02 229.07 505.18 228.69 504.00 227.00
C 500.86 222.51 505.43 212.70 504.00 207.00 C 502.57 201.30 504.66 193.27 504.00 187.00 C 503.34 180.73 504.33 173.58 504.00 167.00 C 503.67 160.42 504.25 152.69 504.00 146.00
C 509.33 146.00 514.67 146.00 520.00 146.00
C 521.02 154.84 519.49 163.64 520.00 173.00
C 539.30 160.09 554.86 176.63 556.00 196.00 C 557.14 215.37 543.97 238.55 523.00 225.00
M 673.00 147.00 
C 684.07 149.17 679.56 167.57 668.00 164.00 C 656.44 160.43 661.46 144.74 673.00 147.00
M 435.00 225.00 
C 435.03 225.37 436.88 226.96 436.00 228.00
C 429.98 226.55 420.16 231.23 417.00 225.00
C 409.44 215.52 408.84 195.29 392.00 200.00
C 393.62 208.34 393.70 219.07 392.00 227.00
C 390.85 228.15 376.60 230.73 375.26 226.74 C 373.92 222.76 375.23 213.19 375.00 208.00 C 374.77 202.81 374.74 193.40 375.00 188.00 C 375.26 182.60 373.97 173.85 375.00 169.00 C 376.03 164.15 372.21 152.65 376.00 150.00
C 381.08 146.45 392.87 152.00 399.00 150.00 C 405.13 148.00 413.69 151.10 419.22 152.78 C 424.76 154.45 428.84 158.34 431.31 163.70 C 433.77 169.05 433.77 178.17 431.68 183.68 C 429.59 189.19 425.19 193.06 420.00 195.00
C 424.56 205.35 431.12 214.45 435.00 225.00
M 645.00 182.00 
C 648.71 189.47 643.03 202.79 645.00 211.00
C 647.36 214.03 649.19 216.63 655.00 215.00
C 655.00 219.00 655.00 223.00 655.00 227.00
C 646.42 230.70 631.97 229.98 629.08 218.92 C 626.18 207.87 629.01 193.68 628.00 182.00
C 618.73 184.96 619.49 176.58 620.00 170.00
C 620.39 169.30 625.86 168.57 627.00 169.00
C 627.60 165.32 628.63 160.37 628.00 156.00
C 633.67 156.00 639.33 156.00 645.00 156.00
C 645.00 160.33 645.00 164.67 645.00 169.00
C 647.88 169.62 650.24 170.26 653.00 169.00
C 655.06 172.87 653.52 177.72 654.00 182.00
C 651.00 182.00 648.00 182.00 645.00 182.00
M 469.00 168.00 
C 504.73 168.11 504.84 230.03 468.00 229.00 C 431.16 227.97 432.23 167.89 469.00 168.00
M 590.00 168.00 
C 626.18 168.11 625.83 230.06 589.00 229.00 C 552.17 227.94 553.74 167.89 590.00 168.00
M 739.00 192.00 
C 733.67 192.00 728.33 192.00 723.00 192.00
C 724.16 183.89 712.24 178.26 707.25 185.25 C 702.26 192.24 703.45 202.19 705.93 210.07 C 708.41 217.96 723.78 216.38 723.00 207.00
C 728.33 207.00 733.67 207.00 739.00 207.00
C 739.28 227.40 710.27 235.64 696.92 223.08 C 683.57 210.52 683.77 185.95 697.75 173.75 C 711.73 161.55 740.24 171.25 739.00 192.00
M 793.00 188.00 
C 787.33 188.00 781.67 188.00 776.00 188.00
C 776.13 173.61 754.52 184.36 764.08 189.92 C 773.64 195.48 781.64 192.09 788.75 200.25 C 795.86 208.41 793.34 216.99 786.25 223.25 C 779.17 229.52 767.41 229.99 758.78 227.22 C 750.15 224.46 742.32 218.04 743.00 208.00
C 748.33 208.00 753.67 208.00 759.00 208.00
C 754.38 220.17 780.95 217.75 776.06 209.92 C 771.18 202.09 758.89 205.37 751.75 199.25 C 744.62 193.12 742.44 182.66 749.70 175.70 C 756.96 168.74 766.37 167.40 776.00 169.00 C 785.63 170.60 792.23 178.88 793.00 188.00
M 675.00 170.00 
C 675.50 170.00 676.00 170.00 676.00 170.00
C 679.22 167.44 679.48 181.24 679.00 186.00 C 678.52 190.76 679.25 201.17 679.00 207.00 C 678.75 212.83 679.19 221.88 679.00 228.00
C 674.00 228.00 669.00 228.00 664.00 228.00
C 659.64 225.85 662.24 214.72 662.00 210.00 C 661.76 205.28 661.22 194.75 662.00 190.00 C 662.78 185.25 659.38 172.80 663.00 170.00
C 663.13 169.90 666.55 169.07 667.00 169.00
C 669.55 168.58 673.18 168.65 675.00 170.00 Z"/>
</g>
<g fill="#23316B" fill-opacity="0.93" stroke="None">
<path d="
M 194.00 52.00 
C 196.79 53.13 194.39 64.49 195.00 70.00 C 195.61 75.51 194.70 84.63 195.00 91.00 C 195.30 97.37 194.77 106.39 195.00 113.00
C 200.33 113.00 205.67 113.00 211.00 113.00
C 211.00 92.67 211.00 72.33 211.00 52.00
C 216.52 49.41 228.08 55.45 233.00 52.00
C 231.01 49.81 231.92 39.28 233.00 40.00
C 233.35 40.23 234.00 40.00 234.00 40.00
C 234.00 38.67 234.00 37.33 234.00 36.00
C 227.20 39.28 213.04 38.34 203.00 38.00 C 192.96 37.66 177.88 40.61 171.00 35.00
C 170.03 40.00 171.65 46.28 171.00 52.00
C 177.85 54.00 187.42 49.33 194.00 52.00 Z"/>
</g>
<g fill="#22306A" fill-opacity="0.89" stroke="None">
<path d="
M 356.00 98.00 
C 354.62 96.20 355.80 98.03 355.00 96.00
C 349.39 89.69 347.06 80.39 340.00 75.00
C 342.94 67.85 349.83 61.98 353.00 55.00
C 353.85 53.14 353.80 52.61 355.00 51.00
C 357.85 46.78 362.50 42.45 363.00 37.00
C 351.49 35.74 342.16 39.15 337.75 48.75 C 333.35 58.36 328.84 65.11 320.00 67.00
C 323.45 57.36 317.94 45.02 323.00 36.00
C 317.72 38.87 310.66 37.89 304.00 38.00
C 306.98 36.39 306.96 35.84 303.00 36.00
C 303.00 61.67 303.00 87.33 303.00 113.00
C 309.00 113.00 315.00 113.00 321.00 113.00
C 320.44 102.06 322.19 90.52 320.00 80.00
C 323.58 83.75 321.76 85.88 324.00 80.00
C 329.77 87.13 334.75 92.55 338.70 102.30 C 342.65 112.05 352.52 115.84 364.00 113.00
C 362.40 107.92 359.37 102.39 356.00 98.00 Z"/>
</g>
<g fill="#23316A" fill-opacity="0.91" stroke="None">
<path d="
M 494.00 107.00 
C 494.65 106.12 495.33 105.69 496.00 105.00
C 504.55 89.35 503.22 72.92 499.98 55.02 C 496.73 37.13 477.25 35.62 461.67 36.67 C 446.09 37.72 438.29 49.74 437.78 65.78 C 437.27 81.82 435.00 101.00 449.75 110.25 C 464.51 119.49 480.55 112.31 494.00 111.00
C 491.74 109.45 492.62 108.86 494.00 107.00
M 473.00 51.00 
C 484.11 52.28 483.72 66.85 483.78 76.22 C 483.83 85.59 483.41 98.92 470.99 99.99 C 458.58 101.06 455.06 87.88 456.00 78.00 C 456.94 68.12 453.64 52.77 466.00 51.00
C 467.40 50.38 466.08 49.57 469.01 49.01 C 471.94 48.46 471.80 50.53 473.00 51.00 Z"/>
</g>
<g fill="#23316A" fill-opacity="0.91" stroke="None">
<path d="
M 258.00 94.00 
C 256.67 91.34 254.25 77.55 263.00 79.00 C 271.75 80.45 278.43 77.91 287.00 79.00
C 287.61 75.83 285.75 71.35 288.00 69.00
C 286.03 64.92 278.65 67.61 274.00 67.00 C 269.35 66.39 262.83 67.44 258.00 67.00
C 256.66 68.40 257.99 63.94 257.00 61.00 C 256.01 58.06 258.43 55.55 259.00 55.00
C 266.16 48.19 281.63 53.86 292.00 52.00
C 293.06 47.49 293.17 42.81 293.00 38.00
C 276.02 38.53 257.15 33.53 242.00 42.00
C 243.37 45.73 239.90 52.57 241.00 59.00 C 242.10 65.43 240.06 74.68 241.00 81.00 C 241.94 87.32 239.54 96.33 241.08 101.92 C 242.61 107.51 246.14 111.66 252.00 113.00 C 257.86 114.34 267.56 112.27 274.00 113.00 C 280.44 113.73 288.42 112.46 295.00 113.00
C 290.12 112.46 296.51 100.50 291.00 99.00 C 285.49 97.50 278.18 99.50 272.00 99.00 C 265.82 98.50 261.10 100.21 258.00 94.00 Z"/>
</g>
<g fill="#23316A" fill-opacity="0.91" stroke="None">
<path d="
M 424.00 41.00 
C 408.29 34.91 388.05 37.47 370.00 37.00
C 372.33 61.80 370.34 87.75 371.00 113.00
C 389.93 112.57 416.25 120.00 430.00 104.00
C 426.83 101.53 430.15 91.50 428.32 85.68 C 426.49 79.85 423.07 76.08 418.00 73.00
C 420.19 71.97 423.33 72.58 425.00 71.00
C 427.27 61.86 427.19 49.74 424.00 41.00
M 389.00 68.00 
C 389.00 62.00 389.00 56.00 389.00 50.00
C 397.13 50.18 409.97 47.68 409.98 59.02 C 409.98 70.37 397.14 67.93 389.00 68.00
M 405.00 100.00 
C 403.89 100.52 388.57 104.83 387.26 100.74 C 385.94 96.66 385.44 82.47 388.00 80.00
C 388.26 79.75 389.00 80.00 389.00 80.00
C 395.33 80.00 405.23 77.48 409.75 83.25 C 414.28 89.02 410.43 97.46 405.00 100.00 Z"/>
</g>
<g fill="#23316A" fill-opacity="0.90" stroke="None">
<path d="
M 569.00 38.00 
C 548.33 38.00 527.67 38.00 507.00 38.00
C 506.50 42.61 508.10 47.80 506.00 52.00
C 513.67 52.00 521.33 52.00 529.00 52.00
C 529.00 72.33 529.00 92.67 529.00 113.00
C 535.00 113.00 541.00 113.00 547.00 113.00
C 547.00 92.67 547.00 72.33 547.00 52.00
C 554.33 52.00 561.67 52.00 569.00 52.00
C 569.00 47.33 569.00 42.67 569.00 38.00 Z"/>
</g>
<g fill="#1C275A" fill-opacity="0.60" stroke="None">
<path d="
M 233.00 52.00 
C 235.04 50.57 233.16 49.69 233.00 48.00
C 232.76 45.48 232.77 42.52 233.00 40.00
C 231.92 39.28 231.01 49.81 233.00 52.00 Z"/>
</g>
<g fill="#000055" fill-opacity="0.01" stroke="None">
<path d="
M 233.00 48.00 
C 233.02 46.14 234.25 42.72 234.00 40.00
C 234.00 40.00 233.35 40.23 233.00 40.00
C 232.77 42.52 232.76 45.48 233.00 48.00 Z"/>
</g>
<g fill="#233357" fill-opacity="0.44" stroke="None">
<path d="
M 466.00 51.00 
C 468.08 50.70 470.91 50.76 473.00 51.00
C 471.80 50.53 471.94 48.46 469.01 49.01 C 466.08 49.57 467.40 50.38 466.00 51.00 Z"/>
</g>
<g fill="#000000" fill-opacity="0.00" stroke="None">
<path d="
M 389.00 68.00 
C 397.14 67.93 409.98 70.37 409.98 59.02 C 409.97 47.68 397.13 50.18 389.00 50.00
C 389.00 56.00 389.00 62.00 389.00 68.00 Z"/>
</g>
<g fill="#1E305B" fill-opacity="0.38" stroke="None">
<path d="
M 194.00 52.00 
C 190.14 55.97 193.91 67.64 193.00 73.00 C 192.09 78.36 192.87 88.72 193.00 94.00 C 193.13 99.28 190.83 110.99 195.00 113.00
C 194.77 106.39 195.30 97.37 195.00 91.00 C 194.70 84.63 195.61 75.51 195.00 70.00 C 194.39 64.49 196.79 53.13 194.00 52.00 Z"/>
</g>
<g fill="#030F54" fill-opacity="0.09" stroke="None">
<path d="
M 353.00 55.00 
C 354.28 53.70 354.05 53.51 355.00 51.00
C 353.80 52.61 353.85 53.14 353.00 55.00 Z"/>
</g>
<g fill="#000000" fill-opacity="0.00" stroke="None">
<path d="
M 473.00 51.00 
C 470.91 50.76 468.08 50.70 466.00 51.00
C 453.64 52.77 456.94 68.12 456.00 78.00 C 455.06 87.88 458.58 101.06 470.99 99.99 C 483.41 98.92 483.83 85.59 483.78 76.22 C 483.72 66.85 484.11 52.28 473.00 51.00 Z"/>
</g>
<g fill="#1F2B63" fill-opacity="0.64" stroke="None">
<path d="
M 258.00 67.00 
C 258.00 67.00 258.05 66.50 258.00 66.00
C 257.76 63.44 258.84 60.77 259.00 59.00
C 258.97 57.30 258.21 56.90 259.00 55.00
C 258.43 55.55 256.01 58.06 257.00 61.00 C 257.99 63.94 256.66 68.40 258.00 67.00 Z"/>
</g>
<g fill="#004040" fill-opacity="0.02" stroke="None">
<path d="
M 258.00 66.00 
C 259.41 64.10 259.04 61.59 259.00 59.00
C 258.84 60.77 257.76 63.44 258.00 66.00 Z"/>
</g>
<g fill="#031157" fill-opacity="0.03" stroke="None">
<path d="
M 24.00 79.00 
C 24.72 80.92 24.93 81.94 27.00 83.00
C 25.10 81.66 25.47 79.89 26.00 78.00
C 27.38 79.36 28.53 77.67 30.00 79.00
C 26.60 76.60 28.71 72.92 29.00 70.00
C 28.92 68.55 29.07 67.14 30.00 66.00
C 27.78 66.41 26.50 68.32 25.00 70.00
C 28.74 68.59 27.41 75.86 24.00 75.00
C 27.44 75.89 23.81 78.03 24.00 79.00 Z"/>
</g>
<g fill="#1E2B60" fill-opacity="0.78" stroke="None">
<path d="
M 29.00 70.00 
C 28.71 72.92 26.60 76.60 30.00 79.00
C 31.88 79.28 33.07 80.69 35.00 79.00
C 35.26 78.77 35.68 78.19 36.00 78.00
C 41.98 74.43 34.15 64.85 29.00 70.00 Z"/>
</g>
<g fill="#203067" fill-opacity="0.58" stroke="None">
<path d="
M 43.00 70.00 
C 55.84 70.32 60.00 67.79 60.00 82.00
C 60.00 102.99 60.29 124.01 60.00 145.00
C 59.96 147.71 58.45 146.45 61.00 148.00
C 57.93 143.61 62.52 133.42 61.00 128.00 C 59.48 122.58 61.99 113.64 61.00 108.00 C 60.01 102.36 62.09 94.25 61.00 89.00 C 59.91 83.75 63.20 73.59 60.22 69.78 C 57.24 65.96 46.11 69.69 43.00 70.00 Z"/>
</g>
<g fill="#1F2C5F" fill-opacity="0.74" stroke="None">
<path d="
M 116.00 69.00 
C 108.45 65.66 105.01 76.74 111.33 79.67 C 117.64 82.59 121.23 71.32 116.00 69.00 Z"/>
</g>
<g fill="#1E2E5E" fill-opacity="0.55" stroke="None">
<path d="
M 258.00 94.00 
C 257.94 92.62 258.77 92.16 259.00 91.00
C 259.16 88.45 257.48 85.98 259.00 83.00
C 260.83 79.43 262.96 80.86 267.00 81.00
C 270.70 80.75 282.40 81.74 286.00 80.00
C 287.97 78.60 289.56 72.23 288.00 69.00
C 285.75 71.35 287.61 75.83 287.00 79.00
C 278.43 77.91 271.75 80.45 263.00 79.00 C 254.25 77.55 256.67 91.34 258.00 94.00 Z"/>
</g>
<g fill="#001479" fill-opacity="0.01" stroke="None">
<path d="
M 121.00 76.00 
C 124.58 70.33 117.67 70.82 121.00 76.00 Z"/>
</g>
<g fill="#000000" fill-opacity="0.00" stroke="None">
<path d="
M 27.00 83.00 
C 30.01 84.53 35.00 84.44 38.00 83.00
C 38.01 80.21 35.29 81.89 35.00 79.00
C 33.07 80.69 31.88 79.28 30.00 79.00
C 28.53 77.67 27.38 79.36 26.00 78.00
C 25.47 79.89 25.10 81.66 27.00 83.00 Z"/>
</g>
<g fill="#071354" fill-opacity="0.03" stroke="None">
<path d="
M 35.00 79.00 
C 35.29 81.89 38.01 80.21 38.00 83.00
C 39.51 82.27 39.85 81.03 41.00 80.00
C 38.08 80.69 38.25 79.76 36.00 78.00
C 35.68 78.19 35.26 78.77 35.00 79.00 Z"/>
</g>
<g fill="#000D3F" fill-opacity="0.10" stroke="None">
<path d="
M 107.00 82.00 
C 108.87 84.12 106.44 82.59 109.00 83.00
C 109.54 81.69 110.41 80.56 110.00 79.00
C 109.87 79.57 107.03 81.61 107.00 82.00 Z"/>
</g>
<g fill="#00005D" fill-opacity="0.01" stroke="None">
<path d="
M 119.00 82.00 
C 118.67 77.57 113.95 82.16 119.00 82.00 Z"/>
</g>
<g fill="#000080" fill-opacity="0.01" stroke="None">
<path d="
M 267.00 81.00 
C 271.90 81.17 282.22 82.67 286.00 80.00
C 282.40 81.74 270.70 80.75 267.00 81.00 Z"/>
</g>
<g fill="#212A60" fill-opacity="0.62" stroke="None">
<path d="
M 405.00 100.00 
C 401.19 100.64 396.87 99.86 393.00 100.00
C 392.11 100.03 389.61 102.00 388.00 101.00
C 388.00 94.00 388.00 87.00 388.00 80.00
C 385.44 82.47 385.94 96.66 387.26 100.74 C 388.57 104.83 403.89 100.52 405.00 100.00 Z"/>
</g>
<g fill="#202B56" fill-opacity="0.06" stroke="None">
<path d="
M 393.00 100.00 
C 391.72 99.74 390.29 100.20 389.00 100.00
C 389.00 93.33 389.00 86.67 389.00 80.00
C 389.00 80.00 388.26 79.75 388.00 80.00
C 388.00 87.00 388.00 94.00 388.00 101.00
C 389.61 102.00 392.11 100.03 393.00 100.00 Z"/>
</g>
<g fill="#000000" fill-opacity="0.00" stroke="None">
<path d="
M 393.00 100.00 
C 396.87 99.86 401.19 100.64 405.00 100.00
C 410.43 97.46 414.28 89.02 409.75 83.25 C 405.23 77.48 395.33 80.00 389.00 80.00
C 389.00 86.67 389.00 93.33 389.00 100.00
C 390.29 100.20 391.72 99.74 393.00 100.00 Z"/>
</g>
<g fill="#000080" fill-opacity="0.01" stroke="None">
<path d="
M 60.00 145.00 
C 60.29 124.01 60.00 102.99 60.00 82.00
C 58.11 101.58 57.78 125.36 60.00 145.00 Z"/>
</g>
<g fill="#404040" fill-opacity="0.02" stroke="None">
<path d="
M 259.00 91.00 
C 259.49 88.52 258.23 85.40 259.00 83.00
C 257.48 85.98 259.16 88.45 259.00 91.00 Z"/>
</g>
<g fill="#030E56" fill-opacity="0.09" stroke="None">
<path d="
M 355.00 96.00 
C 355.80 98.03 354.62 96.20 356.00 98.00
C 355.94 96.56 357.92 97.26 358.00 96.00
C 355.69 95.19 356.03 93.34 355.00 96.00 Z"/>
</g>
<g fill="#071651" fill-opacity="0.02" stroke="None">
<path d="
M 494.00 107.00 
C 495.14 107.03 495.72 108.53 497.00 108.00
C 497.78 107.53 496.16 104.67 496.00 105.00
C 495.33 105.69 494.65 106.12 494.00 107.00 Z"/>
</g>
<g fill="#000080" fill-opacity="0.01" stroke="None">
<path d="
M 142.00 121.00 
C 141.18 120.18 142.74 121.74 142.00 121.00 Z"/>
</g>
<g fill="#0E1E51" fill-opacity="0.31" stroke="None">
<path d="
M 131.00 130.00 
C 132.14 130.03 132.72 131.53 134.00 131.00
C 132.18 128.46 136.55 124.60 137.00 124.00
C 135.80 124.93 132.03 128.68 131.00 130.00 Z"/>
</g>
<g fill="#000080" fill-opacity="0.01" stroke="None">
<path d="
M 129.00 134.00 
C 128.18 133.18 129.74 134.74 129.00 134.00 Z"/>
</g>
<g fill="#6B7393" fill-opacity="0.92" stroke="None">
<path d="
M 504.00 227.00 
C 508.49 225.38 514.53 225.40 519.00 227.00
C 519.40 226.15 519.01 223.96 519.00 223.00
C 518.95 219.13 520.92 223.00 523.00 225.00
C 543.97 238.55 557.14 215.37 556.00 196.00 C 554.86 176.63 539.30 160.09 520.00 173.00
C 519.49 163.64 521.02 154.84 520.00 146.00
C 514.67 146.00 509.33 146.00 504.00 146.00
C 504.25 152.69 503.67 160.42 504.00 167.00 C 504.33 173.58 503.34 180.73 504.00 187.00 C 504.66 193.27 502.57 201.30 504.00 207.00 C 505.43 212.70 500.86 222.51 504.00 227.00
M 532.00 182.00 
C 545.14 184.58 542.55 217.23 528.00 215.00 C 513.45 212.77 516.56 178.97 532.00 182.00 Z"/>
</g>
<g fill="#68708E" fill-opacity="0.83" stroke="None">
<path d="
M 673.00 147.00 
C 661.46 144.74 656.44 160.43 668.00 164.00 C 679.56 167.57 684.07 149.17 673.00 147.00 Z"/>
</g>
<g fill="#65698D" fill-opacity="0.45" stroke="None">
<path d="
M 392.00 227.00 
C 387.48 224.87 381.94 226.52 377.00 226.00
C 376.34 200.75 378.33 174.80 376.00 150.00
C 372.21 152.65 376.03 164.15 375.00 169.00 C 373.97 173.85 375.26 182.60 375.00 188.00 C 374.74 193.40 374.77 202.81 375.00 208.00 C 375.23 213.19 373.92 222.76 375.26 226.74 C 376.60 230.73 390.85 228.15 392.00 227.00 Z"/>
</g>
<g fill="#6B7394" fill-opacity="0.93" stroke="None">
<path d="
M 392.00 227.00 
C 393.70 219.07 393.62 208.34 392.00 200.00
C 408.84 195.29 409.44 215.52 417.00 225.00
C 421.50 227.93 430.28 225.64 435.00 225.00
C 431.12 214.45 424.56 205.35 420.00 195.00
C 425.19 193.06 429.59 189.19 431.68 183.68 C 433.77 178.17 433.77 169.05 431.31 163.70 C 428.84 158.34 424.76 154.45 419.22 152.78 C 413.69 151.10 405.13 148.00 399.00 150.00 C 392.87 152.00 381.08 146.45 376.00 150.00
C 378.33 174.80 376.34 200.75 377.00 226.00
C 381.94 226.52 387.48 224.87 392.00 227.00
M 393.00 184.00 
C 392.65 184.60 391.75 185.67 391.00 186.00
C 391.66 178.84 389.67 170.34 392.00 164.00
C 396.06 161.15 403.31 165.07 408.22 164.78 C 413.13 164.49 415.70 170.40 416.00 175.00 C 416.30 179.60 412.20 185.03 407.99 184.99 C 403.78 184.95 393.72 188.87 393.00 184.00 Z"/>
</g>
<g fill="#6A7293" fill-opacity="0.91" stroke="None">
<path d="
M 627.00 169.00 
C 626.80 170.22 629.27 169.60 629.00 171.00
C 625.97 170.74 622.63 171.74 620.00 170.00
C 619.49 176.58 618.73 184.96 628.00 182.00
C 629.01 193.68 626.18 207.87 629.08 218.92 C 631.97 229.98 646.42 230.70 655.00 227.00
C 655.00 223.00 655.00 219.00 655.00 215.00
C 649.19 216.63 647.36 214.03 645.00 211.00
C 643.76 209.40 641.83 202.24 643.00 197.00 C 644.17 191.76 640.64 183.04 645.00 182.00
C 648.00 182.00 651.00 182.00 654.00 182.00
C 653.52 177.72 655.06 172.87 653.00 169.00
C 650.24 170.26 647.88 169.62 645.00 169.00
C 645.00 164.67 645.00 160.33 645.00 156.00
C 639.33 156.00 633.67 156.00 628.00 156.00
C 628.63 160.37 627.60 165.32 627.00 169.00 Z"/>
</g>
<g fill="#666B92" fill-opacity="0.51" stroke="None">
<path d="
M 393.00 184.00 
C 392.93 183.51 393.00 183.00 393.00 183.00
C 390.76 179.97 392.72 175.85 393.00 173.00
C 393.00 169.97 393.56 166.63 392.00 164.00
C 389.67 170.34 391.66 178.84 391.00 186.00
C 391.75 185.67 392.65 184.60 393.00 184.00 Z"/>
</g>
<g fill="#000000" fill-opacity="0.00" stroke="None">
<path d="
M 393.00 173.00 
C 393.00 176.33 393.00 179.67 393.00 183.00
C 393.00 183.00 392.93 183.51 393.00 184.00
C 393.72 188.87 403.78 184.95 407.99 184.99 C 412.20 185.03 416.30 179.60 416.00 175.00 C 415.70 170.40 413.13 164.49 408.22 164.78 C 403.31 165.07 396.06 161.15 392.00 164.00
C 393.56 166.63 393.00 169.97 393.00 173.00 Z"/>
</g>
<g fill="#6B7292" fill-opacity="0.90" stroke="None">
<path d="
M 469.00 168.00 
C 432.23 167.89 431.16 227.97 468.00 229.00 C 504.84 230.03 504.73 168.11 469.00 168.00
M 470.00 182.00 
C 485.21 184.14 481.42 218.11 466.00 215.00 C 450.58 211.89 455.28 179.92 470.00 182.00 Z"/>
</g>
<g fill="#6B7392" fill-opacity="0.90" stroke="None">
<path d="
M 590.00 168.00 
C 553.74 167.89 552.17 227.94 589.00 229.00 C 625.83 230.06 626.18 168.11 590.00 168.00
M 592.00 182.00 
C 606.25 184.79 602.18 218.94 587.00 215.00 C 571.82 211.06 576.95 179.05 592.00 182.00 Z"/>
</g>
<g fill="#6A7292" fill-opacity="0.89" stroke="None">
<path d="
M 739.00 192.00 
C 740.24 171.25 711.73 161.55 697.75 173.75 C 683.77 185.95 683.57 210.52 696.92 223.08 C 710.27 235.64 739.28 227.40 739.00 207.00
C 733.67 207.00 728.33 207.00 723.00 207.00
C 723.78 216.38 708.41 217.96 705.93 210.07 C 703.45 202.19 702.26 192.24 707.25 185.25 C 712.24 178.26 724.16 183.89 723.00 192.00
C 728.33 192.00 733.67 192.00 739.00 192.00 Z"/>
</g>
<g fill="#6A7292" fill-opacity="0.87" stroke="None">
<path d="
M 793.00 188.00 
C 792.23 178.88 785.63 170.60 776.00 169.00 C 766.37 167.40 756.96 168.74 749.70 175.70 C 742.44 182.66 744.62 193.12 751.75 199.25 C 758.89 205.37 771.18 202.09 776.06 209.92 C 780.95 217.75 754.38 220.17 759.00 208.00
C 753.67 208.00 748.33 208.00 743.00 208.00
C 742.32 218.04 750.15 224.46 758.78 227.22 C 767.41 229.99 779.17 229.52 786.25 223.25 C 793.34 216.99 795.86 208.41 788.75 200.25 C 781.64 192.09 773.64 195.48 764.08 189.92 C 754.52 184.36 776.13 173.61 776.00 188.00
C 781.67 188.00 787.33 188.00 793.00 188.00 Z"/>
</g>
<g fill="#636D8B" fill-opacity="0.37" stroke="None">
<path d="
M 620.00 170.00 
C 622.63 171.74 625.97 170.74 629.00 171.00
C 629.27 169.60 626.80 170.22 627.00 169.00
C 625.86 168.57 620.39 169.30 620.00 170.00 Z"/>
</g>
<g fill="#58628A" fill-opacity="0.56" stroke="None">
<path d="
M 663.00 170.00 
C 666.13 170.69 673.33 172.48 677.00 171.00
C 676.97 170.38 678.26 170.01 676.00 170.00
C 676.00 170.00 675.50 170.00 675.00 170.00
C 672.67 170.00 668.45 168.91 667.00 169.00
C 666.55 169.07 663.13 169.90 663.00 170.00 Z"/>
</g>
<g fill="#808080" fill-opacity="0.01" stroke="None">
<path d="
M 675.00 170.00 
C 673.18 168.65 669.55 168.58 667.00 169.00
C 668.45 168.91 672.67 170.00 675.00 170.00 Z"/>
</g>
<g fill="#64698A" fill-opacity="0.43" stroke="None">
<path d="
M 676.00 170.00 
C 678.26 170.01 676.97 170.38 677.00 171.00
C 677.97 189.62 676.27 208.37 677.00 227.00
C 672.83 227.64 667.34 225.71 664.00 228.00
C 669.00 228.00 674.00 228.00 679.00 228.00
C 679.19 221.88 678.75 212.83 679.00 207.00 C 679.25 201.17 678.52 190.76 679.00 186.00 C 679.48 181.24 679.22 167.44 676.00 170.00 Z"/>
</g>
<g fill="#6B7494" fill-opacity="0.94" stroke="None">
<path d="
M 664.00 228.00 
C 667.34 225.71 672.83 227.64 677.00 227.00
C 676.27 208.37 677.97 189.62 677.00 171.00
C 673.33 172.48 666.13 170.69 663.00 170.00
C 659.38 172.80 662.78 185.25 662.00 190.00 C 661.22 194.75 661.76 205.28 662.00 210.00 C 662.24 214.72 659.64 225.85 664.00 228.00 Z"/>
</g>
<g fill="#808080" fill-opacity="0.02" stroke="None">
<path d="
M 393.00 183.00 
C 393.00 179.67 393.00 176.33 393.00 173.00
C 392.72 175.85 390.76 179.97 393.00 183.00 Z"/>
</g>
<g fill="#676E8B" fill-opacity="0.45" stroke="None">
<path d="
M 645.00 211.00 
C 643.03 202.79 648.71 189.47 645.00 182.00
C 640.64 183.04 644.17 191.76 643.00 197.00 C 641.83 202.24 643.76 209.40 645.00 211.00 Z"/>
</g>
<g fill="#000000" fill-opacity="0.00" stroke="None">
<path d="
M 470.00 182.00 
C 455.28 179.92 450.58 211.89 466.00 215.00 C 481.42 218.11 485.21 184.14 470.00 182.00 Z"/>
</g>
<g fill="#000000" fill-opacity="0.00" stroke="None">
<path d="
M 532.00 182.00 
C 516.56 178.97 513.45 212.77 528.00 215.00 C 542.55 217.23 545.14 184.58 532.00 182.00 Z"/>
</g>
<g fill="#000000" fill-opacity="0.00" stroke="None">
<path d="
M 592.00 182.00 
C 576.95 179.05 571.82 211.06 587.00 215.00 C 602.18 218.94 606.25 184.79 592.00 182.00 Z"/>
</g>
<g fill="#656D89" fill-opacity="0.42" stroke="None">
<path d="
M 519.00 223.00 
C 520.00 224.15 521.91 224.33 523.00 225.00
C 520.92 223.00 518.95 219.13 519.00 223.00 Z"/>
</g>
<g fill="#60677F" fill-opacity="0.47" stroke="None">
<path d="
M 435.00 225.00 
C 430.28 225.64 421.50 227.93 417.00 225.00
C 420.16 231.23 429.98 226.55 436.00 228.00
C 436.88 226.96 435.03 225.37 435.00 225.00 Z"/>
</g>
<g fill="#636885" fill-opacity="0.46" stroke="None">
<path d="
M 504.00 227.00 
C 505.18 228.69 518.02 229.07 519.00 227.00
C 514.53 225.40 508.49 225.38 504.00 227.00 Z"/>
</g>
</svg>